<?xml version="1.0" encoding="utf-8"?>
<!-- Generator: Adobe Illustrator 24.0.1, SVG Export Plug-In . SVG Version: 6.00 Build 0)  -->
<svg version="1.1" id="Layer_1" xmlns="http://www.w3.org/2000/svg" xmlns:xlink="http://www.w3.org/1999/xlink" x="0px" y="0px"
	 viewBox="0 0 238 245" style="enable-background:new 0 0 238 245;" xml:space="preserve">
<style type="text/css">
	.st0{fill:#FFFFFF;}
</style>
<g>
	<path class="st0" d="M51.4,141.5c2.3,0,3.9-2.3,3.9-5.5c0-2.5-1.2-5.4-3.9-5.4c-2.9,0-4,2.7-4,5.4l0.1,0.1
		C47.4,139.2,49,141.5,51.4,141.5z"/>
	<path class="st0" d="M34.1,193.9c-1.3,0-2.2,0.1-2.8,0.2V210l0.1,0.1c0.6,0.1,1.4,0.1,2.2,0.1c5.3,0,8.4-2.9,8.4-8.6
		C42,196.7,39.2,193.9,34.1,193.9z"/>
	<path class="st0" d="M99.6,96.3c-2.5,0-3.5,2.3-3.7,3.9h7.1C102.9,98.6,102.2,96.3,99.6,96.3z"/>
	<path class="st0" d="M148.8,139.4c0,1.6,1,2.3,2.3,2.3c1.6,0,2.8-1.1,3.2-2.2c0.1-0.3,0.1-0.6,0.1-0.9v-2.2
		C151.5,136.3,148.8,136.9,148.8,139.4z"/>
	<path class="st0" d="M112.8,165.2c-2.3,0-4,2-4,5.3c0,2.7,1.4,5,4,5c1.5,0,2.8-1,3.3-2.4c0.1-0.4,0.1-0.9,0.1-1.4V169v-0.1
		c0-0.4,0-0.8-0.1-1.1C115.7,166.3,114.5,165.2,112.8,165.2z"/>
	<path class="st0" d="M56.3,199.4c-2.5,0-3.6,2.3-3.7,4h7.1C59.6,201.9,59,199.4,56.3,199.4z"/>
	<path class="st0" d="M131.9,165c-2.9,0-4,2.8-4,5.5c0,3.1,1.6,5.5,4,5.5c2.3,0,4-2.2,4-5.5C135.8,167.9,134.6,165,131.9,165z"/>
	<path class="st0" d="M38.2,163c0-2.4-1.7-3.7-4.5-3.7c-1.2,0-1.9,0.1-2.4,0.2v7.4c0.5,0.1,1.2,0.2,2,0.2
		C36.4,167.1,38.2,165.6,38.2,163z"/>
	<path class="st0" d="M187.2,96.4c-2.9,0-4,2.7-4,5.4l0.1,0.1c0,3.1,1.5,5.4,4,5.4c2.3,0,3.9-2.3,3.9-5.5
		C191.1,99.3,189.9,96.4,187.2,96.4z"/>
	<path class="st0" d="M178,130.6c-2.5,0-3.5,2.3-3.7,3.9h7.1C181.3,133,180.7,130.6,178,130.6z"/>
	<path class="st0" d="M0-0.2V245h152.3c47.6,0,86.1-38.5,86.2-86.1V-0.2H0z M159,93.7L159,93.7l2.9,8.6c0.4,1,0.6,2.2,0.9,3.1h0.1
		c0.3-0.9,0.6-2.1,0.9-3.2l2.5-8.6h4.3l-4,10.9c-2.2,6-3.7,8.6-5.6,10.3c-1.6,1.4-3.2,1.9-4.2,2.1l-0.9-3.5c0.7-0.1,1.5-0.5,2.4-1.2
		c0.8-0.5,1.7-1.4,2.2-2.5c0.1-0.3,0.3-0.5,0.3-0.7c0-0.1,0-0.4-0.2-0.8l-5.8-14.7H159z M151,130.7c-1.6,0-3.2,0.5-4.3,1.2l-0.8-2.7
		c1.2-0.7,3.2-1.4,5.8-1.4c5.1,0,6.6,3.2,6.6,6.8v5.8c0,1.4,0.1,2.9,0.2,3.9h-3.7v0.1l-0.3-1.8h-0.1c-1,1.2-2.7,2.2-4.8,2.2
		c-3.2,0-5-2.3-5-4.8c0-4,3.6-6.1,9.5-6v-0.3C154.3,132.4,153.8,130.7,151,130.7z M143,93.8h2.3v-3.6l3.9-0.9v0h0.1l-0.1,0v4.6h3.9
		v3h-3.9v7.1c0,1.9,0.5,3,2.1,3c0.7,0,1.2-0.1,1.6-0.2l0.1,3.1c-0.6,0.2-1.7,0.4-3,0.4c-1.5,0-2.7-0.5-3.5-1.3
		c-0.9-0.9-1.2-2.4-1.2-4.5v-7.6H143V93.8z M138,87.1c1.4,0,2.2,0.9,2.3,2.2h-0.1c0,1.2-0.9,2.2-2.3,2.2c-1.4,0-2.2-0.9-2.2-2.2
		C135.7,88.1,136.6,87.1,138,87.1z M140,93.8v16.1h-4.1V93.8H140z M135.1,132.3c0.6,2.7,1,5.1,1.4,7.5h0.1c0.4-2.4,0.9-5,1.5-7.7
		l2.3-10h4.1l-6,22.2h-4.3l-2.3-10.4c-0.6-2.5-0.9-4.6-1.2-7.1h-0.1c-0.4,2.4-0.8,4.5-1.5,7.1l-2.6,10.4h-4.3l-5.4-22.2h4.3
		l2.1,10.1c0.6,2.7,1.1,5.5,1.4,7.7h0.1c0.4-2.3,1-5,1.6-7.8l2.4-10h4.2L135.1,132.3z M139.9,170.3L139.9,170.3
		C139.9,170.4,139.9,170.4,139.9,170.3c0,5.9-4.2,8.6-8.3,8.6c-4.5,0-8.1-3.1-8.1-8.3c0-5.3,3.5-8.5,8.4-8.5
		C136.7,162.1,139.9,165.5,139.9,170.3C139.9,170.4,139.9,170.3,139.9,170.3z M120.3,176.2c0,3.4-0.7,5.8-2.4,7.3
		c-1.7,1.5-4,1.9-6.2,1.9c-2,0-4.2-0.4-5.6-1.3l0.9-3.1c1,0.6,2.7,1.2,4.7,1.2c2.7,0,4.6-1.4,4.6-4.8V176h-0.1
		c-0.9,1.4-2.5,2.4-4.7,2.4c-4,0-6.8-3.3-6.8-7.8c0-5.3,3.5-8.5,7.3-8.5c2.4,0,3.9,1.2,4.7,2.5h0.1l0.1-2.2h3.5
		c-0.1,1.1-0.1,2.4-0.1,4.6L120.3,176.2L120.3,176.2z M125.8,103.2c-3.1-1.1-4.5-2.8-4.4-4.7c0-2.8,2.3-5,6-5c1.8,0,3.3,0.4,4.2,0.9
		l-0.8,2.9c-0.7-0.4-1.9-0.9-3.4-0.9c-1.4,0-2.2,0.7-2.2,1.7c0,1,0.8,1.5,2.8,2.2c2.9,1.1,4.2,2.5,4.2,4.9c0,2.9-2.3,5-6.6,5
		c-1.9,0-3.7-0.4-4.9-1.2l0.8-3l0.1,0.1c0.9,0.6,2.7,1.2,4.1,1.2c1.8,0,2.6-0.7,2.6-1.8S127.9,103.8,125.8,103.2z M113.5,93.8
		l0.1,3.1h0.1c0.8-2.3,2.7-3.5,4.4-3.5c0.4,0,0.6,0,0.9,0.1v3.8c-0.4-0.1-0.7-0.1-1.2-0.1c-1.9,0-3.2,1.2-3.6,3.1
		c-0.1,0.4-0.1,0.8-0.1,1.2v8.3h-4V98.9l-0.1,0.1c0-2.2,0-3.7-0.1-5.2H113.5z M108.2,144.2h-4v-9c0-2.3-0.9-4.1-3.1-4.1
		c-1.6,0-2.7,1.1-3.1,2.3c-0.1,0.4-0.1,0.8-0.1,1.2v9.6h-4.1v-23.4h4v9.6h0.1c0.5-0.8,1.2-1.4,2-1.9c0.8-0.4,1.7-0.7,2.7-0.7
		c2.7,0,5.6,1.8,5.6,7V144.2z M99.8,93.5c5.2,0,6.9,4.2,6.9,7.8c0,0.8-0.1,1.4-0.1,1.7H95.8c0.1,2.9,2.4,4.2,5,4.2
		c1.9,0,3.2-0.3,4.5-0.7l0.6,2.8c-1.4,0.6-3.3,1-5.6,1c-5.2,0-8.3-3.2-8.3-8.1C91.9,97.6,94.7,93.5,99.8,93.5z M91.9,174.7
		L91.9,174.7L91.9,174.7c0.9,0.6,2.7,1.2,4.1,1.2c1.8,0,2.6-0.8,2.6-1.8c0-1.1-0.6-1.6-2.7-2.4c-3.2-1.1-4.4-2.8-4.4-4.7
		c0-2.8,2.4-5,6-5c1.8,0,3.3,0.4,4.3,0.9l-0.8,2.8c-0.6-0.4-2-0.9-3.4-0.9c-1.4,0-2.2,0.7-2.2,1.7c0,1,0.8,1.5,2.8,2.2
		c3,1,4.2,2.5,4.3,4.9c0,3-2.3,5-6.6,5c-1.9,0-3.7-0.4-4.9-1.2L91.9,174.7C91.9,174.7,91.9,174.7,91.9,174.7z M79,93.8L79,93.8
		l2.7,8.1c0.4,1.4,0.8,2.7,1.1,4h0.1c0.3-1.3,0.6-2.6,1.1-4l2.5-8.1h4.2l-6.1,16.1h-4l-6-16.1H79z M88.6,141.2
		c0.7,0,1.2-0.1,1.6-0.2l0.1,3.1c-0.6,0.2-1.7,0.4-3,0.4c-1.5,0-2.7-0.5-3.5-1.3c-0.9-0.9-1.2-2.4-1.2-4.5v-7.6h-2.3v-3h2.3v-3.6
		l3.9-0.9v0h0.1l-0.1,0v4.6h3.9v3h-3.9v7.1C86.5,140.2,87,141.2,88.6,141.2z M70,87.1c1.4,0,2.2,0.9,2.3,2.2h-0.1
		c0,1.2-0.9,2.2-2.3,2.2c-1.4,0-2.2-0.9-2.2-2.2C67.7,88.1,68.6,87.1,70,87.1z M72,93.8v16.1h-4.1V93.8H72z M70,141.3
		c1.6,0,2.7-1.2,3.1-2.2c0.1-0.4,0.2-0.8,0.2-1.2v-9.6h4v11.2c0,1.9,0.1,3.5,0.1,4.8H74l-0.2-2.4h-0.1c-0.7,1.2-2.3,2.8-5.1,2.8
		c-3,0-5.6-1.7-5.6-7v-9.4h4v8.7C67,139.5,67.9,141.3,70,141.3z M52.3,93.9l0.2,2.4h0.1c0.7-1.2,2.4-2.7,5.1-2.7
		c2.8,0,5.7,1.8,5.7,6.9v9.5h-4v-9.1c0-2.3-0.9-4-3.1-4c-1.6,0-2.7,1.2-3.2,2.4c-0.1,0.4-0.1,0.9-0.1,1.3v9.4h-4.1V98.7l0.1-0.1
		c0-1.9,0-3.4-0.1-4.8H52.3z M59,160.1c-1.4,0-2.2-1-2.2-2.2c0-1.2,0.9-2.2,2.3-2.2c1.4,0,2.2,0.9,2.3,2.2h-0.1
		C61.3,159.2,60.4,160.1,59,160.1z M61,162.5v16.1h-4v-16.1H61z M51.5,127.7c4.8,0,8,3.4,8,8.2v0.1c0,5.9-4.2,8.5-8.2,8.5
		c-4.5,0-8.1-3.1-8.1-8.3C43.3,131,46.7,127.7,51.5,127.7z M45.1,162.4h3.5l0.1,3h0.1c0.8-2.2,2.7-3.4,4.4-3.4c0.4,0,0.6,0,0.9,0.1
		v3.8c-0.4-0.1-0.7-0.1-1.2-0.1c-1.9,0-3.2,1.2-3.6,3.1c-0.1,0.4-0.1,0.8-0.1,1.2v8.4h-4v-10.9v-0.1
		C45.2,165.4,45.2,163.9,45.1,162.4z M26.9,87.6h4l0.1,0.1v13c0,4.3,1.8,6.3,4.5,6.3c3,0,4.7-2,4.7-6.3v-13h4v12.7
		c0,6.8-3.5,9.9-8.9,9.9c-5.1,0-8.5-2.9-8.5-9.9V87.6z M26.9,139.7L26.9,139.7L26.9,139.7c1.3,0.8,3.3,1.4,5.4,1.4c2.6,0,4-1.2,4-3
		c0-1.7-1.2-2.7-4-3.7c-3.7-1.3-6-3.2-6-6.5c0-3.6,3-6.4,7.8-6.4c2.4,0,4.2,0.5,5.3,1.2l-1,3.2c-0.8-0.4-2.3-1.1-4.4-1.1
		c-2.6,0-3.7,1.4-3.7,2.7c0,1.7,1.3,2.5,4.2,3.7c3.9,1.4,5.8,3.4,5.8,6.6c0,3.5-2.7,6.6-8.4,6.6c-2.3,0-4.8-0.6-6-1.4L26.9,139.7
		C27,139.8,26.9,139.8,26.9,139.7z M27.2,156.6L27.2,156.6c1.6-0.3,3.6-0.4,6.3-0.4c3,0,5.1,0.6,6.6,1.8c1.3,1.1,2.2,2.8,2.2,4.9
		s-0.6,3.8-1.9,5c-1.7,1.6-4.2,2.4-7.1,2.4c-0.8,0-1.4,0-2-0.1v8.4h-4V156.6z M43,210.4c-2.2,2-5.8,3-10.1,3c-2.4,0-4.1-0.1-5.5-0.3
		v-21.9l-0.1-0.1c1.8-0.3,4-0.4,6.5-0.4c4.2,0,7,0.9,9.1,2.6c2.2,1.7,3.5,4.4,3.5,8.2C46.4,205.5,45.1,208.5,43,210.4z M63.3,206.3
		H52.6c0.1,2.8,2.4,4.1,5,4.1c1.9,0,3.2-0.3,4.5-0.7l0.6,2.8c-1.4,0.6-3.3,1-5.6,1c-5.2,0-8.3-3.2-8.3-8.1c0-4.5,2.7-8.6,7.8-8.6
		c5.2,0,6.9,4.3,6.9,7.8C63.4,205.3,63.4,205.9,63.3,206.3z M70,178.5h-4l-0.1,0.1v-13h-2.2v-3h2.2v-0.7c0-2.1,0.6-4.2,1.9-5.5
		c1.2-1.2,2.8-1.6,4.2-1.6c1.1,0,1.9,0.2,2.6,0.4l-0.3,3.2c-0.4-0.1-1-0.3-1.7-0.3c-2,0-2.7,1.7-2.7,3.7v0.8h3.5v3H70V178.5z
		 M84.5,210.1c1.6,0,3.3-0.4,4.4-0.8l0.6,3.2h0.1c-0.9,0.4-3.1,1-5.8,1c-7.1,0-11.4-4.4-11.4-11.2c0-7.3,5.1-11.7,11.9-11.7
		c2.7,0,4.5,0.6,5.4,1l-0.9,3.2c-1.1-0.4-2.5-0.9-4.4-0.9c-4.5,0-7.8,2.8-7.8,8.2C76.7,207.1,79.5,210.1,84.5,210.1z M86,173.4
		c-2.2,6-3.7,8.7-5.5,10.3c-1.6,1.4-3.2,1.9-4.2,2l-0.9-3.4c0.7-0.1,1.5-0.5,2.4-1.2c0.8-0.5,1.7-1.4,2.2-2.5
		c0.1-0.3,0.2-0.5,0.2-0.7c0-0.1,0-0.4-0.2-0.8L74,162.3h4.5v0.1l2.9,8.6c0.4,1,0.7,2.2,0.9,3.1h0.1c0.2-0.9,0.5-2.1,0.9-3.2
		l2.5-8.6h4.3L86,173.4z M102.2,208c-2.2,6-3.7,8.7-5.5,10.3c-1.6,1.4-3.2,1.9-4.2,2l-0.9-3.4c0.7-0.1,1.5-0.5,2.4-1.2
		c0.8-0.5,1.7-1.4,2.2-2.5c0.1-0.3,0.2-0.5,0.2-0.7c0-0.1,0-0.4-0.2-0.8L90.2,197h4.5v0.1l2.9,8.6c0.4,1,0.7,2.2,0.9,3.1h0.1
		c0.2-0.9,0.5-2.1,0.9-3.2l2.5-8.6h4.3L102.2,208z M132.2,213.2h-4v-8.9c0-2.7-0.9-4.2-2.9-4.2c-1.4,0-2.4,1-2.8,2.2
		c-0.1,0.4-0.2,0.9-0.2,1.4v9.6h-4V204c0-2.2-0.9-3.8-2.8-3.8c-1.5,0-2.5,1.2-3,2.3c-0.1,0.4-0.2,0.9-0.2,1.4v9.5h-4V202l0.1-0.2
		c0-1.9-0.1-3.4-0.1-4.8h3.5l0.2,2.4h0.1c0.8-1.2,2.2-2.7,5-2.7c2.1,0,3.7,1.2,4.5,3h0.1c0.6-0.9,1.2-1.6,1.9-2
		c0.9-0.6,1.9-0.9,3.3-0.9c2.7,0,5.3,1.8,5.3,7V213.2z M145.5,200.6c-0.4-0.1-0.7-0.1-1.2-0.1c-1.9,0-3.2,1.2-3.6,3.1
		c-0.1,0.4-0.1,0.8-0.1,1.2v8.4h-4v-10.9v-0.1c0-2.2,0-3.7-0.1-5.2h3.5l0.1,3h0.1c0.8-2.2,2.7-3.4,4.4-3.4c0.4,0,0.6,0,0.9,0.1
		V200.6z M147.4,178.5h-4v-23.5h4V178.5z M159.3,213.1l-0.2-2.4H159c-0.7,1.2-2.3,2.8-5.2,2.8c-2.9,0-5.5-1.7-5.5-7v-9.4h4v8.7
		c0,2.7,0.9,4.4,3,4.4c1.7,0,2.7-1.2,3.1-2.2c0.1-0.4,0.2-0.8,0.2-1.2v-9.7h4v11.2c0,1.9,0.1,3.5,0.1,4.8H159.3z M166.9,144.2h-4.1
		v-23.4h4.1V144.2z M185,137.4h-10.7c0.1,2.8,2.4,4.1,5,4.1c1.9,0,3.2-0.3,4.5-0.7l0.6,2.8c-1.4,0.6-3.3,1-5.6,1
		c-5.2,0-8.3-3.2-8.3-8.1c0-4.5,2.7-8.6,7.8-8.6c5.2,0,6.9,4.2,6.9,7.8C185.2,136.4,185.1,137,185,137.4z M179,101.9
		c0-5.3,3.5-8.5,8.3-8.5c4.8,0,8,3.4,8,8.2v0.1c0,5.9-4.2,8.5-8.2,8.5C182.6,110.2,179,107.1,179,101.9z M192.4,144.4
		c-1.9,0-3.7-0.4-4.9-1.2l0.8-3l0.1,0.1c0.9,0.6,2.7,1.2,4.1,1.2c1.8,0,2.6-0.7,2.6-1.8c0-1.1-0.6-1.7-2.7-2.3
		c-3.1-1.1-4.5-2.8-4.4-4.7c0-2.8,2.3-5,6-5c1.8,0,3.3,0.4,4.2,0.9l-0.8,2.9c-0.7-0.4-1.9-0.9-3.4-0.9c-1.4,0-2.2,0.7-2.2,1.7
		c0,1,0.8,1.5,2.8,2.2c2.9,1.1,4.2,2.5,4.2,4.9C199,142.3,196.7,144.4,192.4,144.4z M207.7,89.5c-0.4-0.1-1-0.3-1.7-0.3
		c-2,0-2.7,1.7-2.7,3.7v0.8h3.5v3h-3.5v13h-4V96.8h-2.2v-3h2.2v-0.7c0-2.1,0.6-4.2,1.9-5.5c1.2-1.2,2.8-1.6,4.2-1.6
		c1.1,0,1.9,0.1,2.6,0.4L207.7,89.5z"/>
</g>
</svg>
